HIERARCHY
ROOT Hips
{
 OFFSET 0.000000 0.000000 0.000000
 CHANNELS 6 Xposition Yposition Zposition Yrotation Xrotation Zrotation
 JOINT Chest
 {
  OFFSET 0.000000 12.778769 -0.025672
  CHANNELS 3 Yrotation Xrotation Zrotation
  JOINT Chest2
  {
   OFFSET 0.000000 9.048585 0.046633
   CHANNELS 3 Yrotation Xrotation Zrotation
   JOINT Chest3
   {
    OFFSET 0.000000 8.173956 0.000000
    CHANNELS 3 Yrotation Xrotation Zrotation
    JOINT Chest4
    {
     OFFSET 0.000000 8.173956 0.000000
     CHANNELS 3 Yrotation Xrotation Zrotation
     JOINT Neck
     {
      OFFSET 0.000000 11.254521 0.000000
      CHANNELS 3 Yrotation Xrotation Zrotation
      JOINT Head
      {
       OFFSET 0.000000 7.627541 0.110895
       CHANNELS 3 Yrotation Xrotation Zrotation
       End Site
       {
        OFFSET 0.000000 14.324091 0.057923
       }
      }
     }
     JOINT RightCollar
     {
      OFFSET -2.416021 6.309018 0.000000
      CHANNELS 3 Yrotation Xrotation Zrotation
      JOINT RightShoulder
      {
       OFFSET -12.309578 0.000000 0.000000
       CHANNELS 3 Yrotation Xrotation Zrotation
       JOINT RightElbow
       {
        OFFSET -26.817880 0.000000 0.000000
        CHANNELS 3 Yrotation Xrotation Zrotation
        JOINT RightWrist
        {
         OFFSET -22.046493 0.000000 0.005727
         CHANNELS 3 Yrotation Xrotation Zrotation
         End Site
         {
          OFFSET -16.516461 0.000000 0.000000
         }
        }
       }
      }
     }
     JOINT LeftCollar
     {
      OFFSET 2.416021 6.309018 0.000000
      CHANNELS 3 Yrotation Xrotation Zrotation
      JOINT LeftShoulder
      {
       OFFSET 12.309578 0.000000 0.000000
       CHANNELS 3 Yrotation Xrotation Zrotation
       JOINT LeftElbow
       {
        OFFSET 26.817880 0.000000 0.000000
        CHANNELS 3 Yrotation Xrotation Zrotation
        JOINT LeftWrist
        {
         OFFSET 22.046493 0.000000 0.005727
         CHANNELS 3 Yrotation Xrotation Zrotation
         End Site
         {
          OFFSET 16.516461 0.000000 0.000000
         }
        }
       }
      }
     }
    }
   }
  }
 }
 JOINT RightHip
 {
  OFFSET -10.582077 0.125794 0.012836
  CHANNELS 3 Yrotation Xrotation Zrotation
  JOINT RightKnee
  {
   OFFSET 0.000000 -43.218284 0.001140
   CHANNELS 3 Yrotation Xrotation Zrotation
   JOINT RightAnkle
   {
    OFFSET 0.000000 -37.342314 0.092095
    CHANNELS 3 Yrotation Xrotation Zrotation
    JOINT RightToe
    {
     OFFSET 0.000000 -11.963287 17.799678
     CHANNELS 3 Yrotation Xrotation Zrotation
     End Site
     {
      OFFSET 0.000000 -1.355498 5.291052
     }
    }
   }
  }
 }
 JOINT LeftHip
 {
  OFFSET 10.582077 0.125794 0.012836
  CHANNELS 3 Yrotation Xrotation Zrotation
  JOINT LeftKnee
  {
   OFFSET 0.000000 -43.218284 0.001140
   CHANNELS 3 Yrotation Xrotation Zrotation
   JOINT LeftAnkle
   {
    OFFSET 0.000000 -37.342314 0.092095
    CHANNELS 3 Yrotation Xrotation Zrotation
    JOINT LeftToe
    {
     OFFSET 0.000000 -11.963287 17.799678
     CHANNELS 3 Yrotation Xrotation Zrotation
     End Site
     {
      OFFSET 0.000000 -1.355498 5.291052
     }
    }
   }
  }
 }
}
MOTION
Frames: 13
Frame Time: 0.016667
-53.086650 91.351211 21.173536 -140.747524 -28.870598 7.135460 -12.112849 -3.825670 -6.732787 -3.510517 -1.675217 -2.055023 -3.510517 -1.675217 -2.055023 -2.638369 -1.244675 -1.550843 -2.608387 26.456716 3.579729 -5.442285 13.179157 6.960855 26.200029 -7.484511 29.902916 -66.050859 33.931552 60.455866 -63.561767 49.535830 20.293782 -32.185865 4.154409 -11.031278 5.378183 0.896356 7.409757 72.950606 28.592774 -23.109248 101.801740 59.766103 21.902257 27.727089 21.768997 7.745486 -10.216212 51.193309 -10.873182 12.077126 -35.455624 -13.070201 -2.444594 -1.322269 -1.954671 1.603335 -1.182698 1.241175 2.603433 48.502782 -3.516150 2.900883 -15.893985 -4.175206 0.929210 -6.287598 -3.396627 -0.201382 -1.272774 -0.250639
-53.027637 91.420876 21.461642 -140.991452 -28.087708 7.132067 -11.724227 -4.027639 -6.628971 -3.400686 -1.595187 -2.094183 -3.400686 -1.595187 -2.094183 -2.555853 -1.184798 -1.579472 -2.624287 26.134841 3.697155 -5.514745 12.592317 7.189253 25.828699 -8.065670 29.616046 -67.897242 34.408002 59.553169 -62.552746 50.550030 21.246905 -31.532738 4.945925 -10.550993 4.961593 0.930713 7.284007 72.696680 29.392466 -25.184174 108.542863 63.567649 23.785599 26.592727 23.866908 5.301626 -8.563601 49.590996 -10.071791 11.542104 -34.114834 -12.423345 -1.684145 -1.402474 -1.813515 1.257846 -0.921285 1.022895 2.905262 47.575615 -3.482743 2.893135 -15.849485 -4.180189 0.733095 -6.157790 -3.449190 0.087635 -1.349793 -0.078507
-53.018741 91.541354 21.697559 -140.987147 -27.774382 7.141259 -11.638876 -3.854131 -6.745280 -3.312033 -1.514381 -2.132725 -3.312033 -1.514381 -2.132725 -2.489201 -1.124284 -1.607715 -2.608628 25.821903 3.811350 -5.530785 12.019530 7.404964 25.530413 -8.642386 29.382001 -69.528101 34.767579 58.636881 -61.584007 51.324308 22.163501 -30.947811 5.497881 -10.256930 4.640113 0.886509 7.169792 72.448605 30.051521 -27.153117 115.435404 66.792351 26.376886 25.270705 25.744006 3.007962 -7.966960 48.521962 -9.841108 11.420437 -32.917339 -12.034461 -1.258616 -1.159460 -1.812872 1.161787 -0.985000 0.955845 2.729448 47.061900 -3.705099 2.899869 -15.752024 -4.122623 0.594029 -5.934143 -3.501629 0.332658 -1.538846 0.074075
-53.074651 91.693602 21.852272 -140.655371 -27.821546 7.195185 -11.914556 -3.398609 -7.168577 -3.255572 -1.445214 -2.183022 -3.255572 -1.445214 -2.183022 -2.446749 -1.072335 -1.644935 -2.532954 25.512526 3.956488 -5.447571 11.450910 7.662363 25.382035 -9.245166 29.231755 -70.903012 35.066819 57.839593 -60.533731 52.064416 23.320535 -30.392808 5.848143 -10.033679 4.463813 0.823771 7.160135 72.135934 30.579040 -28.971441 122.224561 69.587618 29.288139 24.195553 27.606518 0.973365 -8.270632 47.964223 -10.043580 11.814024 -31.897141 -12.035018 -1.340296 -0.641182 -1.895560 1.292749 -1.317282 1.000528 1.918000 46.837418 -4.282221 2.967607 -15.559331 -4.020070 0.471959 -5.679615 -3.578847 0.563989 -1.813236 0.221266
-53.192416 91.876354 21.984840 -140.003434 -27.911500 7.378175 -12.456417 -2.963917 -7.871881 -3.216061 -1.391260 -2.224708 -3.216061 -1.391260 -2.224708 -2.417030 -1.031788 -1.675827 -2.467535 25.207653 4.092573 -5.381353 10.890823 7.905831 25.197698 -9.766912 29.112172 -71.905897 35.289937 57.184212 -59.445889 52.787066 24.689113 -29.809975 6.209371 -9.829616 4.337634 0.726809 7.138467 71.751267 30.987393 -30.628599 128.331610 72.044686 31.994553 23.597143 29.145781 -0.826408 -9.070151 47.564173 -10.592983 12.323583 -31.055436 -12.217256 -1.683766 -0.003030 -1.890507 1.469621 -1.727126 1.023805 0.507751 46.573651 -5.272824 3.128421 -15.271049 -3.908473 0.145815 -5.462765 -3.761965 0.911270 -2.099859 0.454305
-53.267589 92.046152 22.097564 -139.514614 -27.715191 7.501732 -12.717837 -2.767748 -8.323110 -3.145271 -1.369189 -2.234180 -3.145271 -1.369189 -2.234180 -2.363884 -1.015442 -1.682656 -2.527476 24.954101 4.164946 -5.521837 10.431675 8.062599 24.782878 -10.026071 28.915486 -72.625738 35.424399 56.619290 -58.430717 53.391155 26.009732 -29.257700 6.711594 -9.570011 4.054781 0.699791 6.960760 71.322782 31.303458 -32.121217 132.890408 73.881732 33.840427 23.342135 30.151147 -2.062987 -9.179719 46.925423 -10.690631 12.455403 -30.204720 -12.289598 -1.828986 0.379541 -1.710347 1.482244 -1.883907 0.921684 -0.503485 46.006760 -5.992872 3.298068 -14.900302 -3.791578 -0.176619 -5.358088 -3.956165 1.218028 -2.317344 0.660549
-53.247304 92.188446 22.225972 -139.274182 -27.142816 7.528956 -12.657371 -2.894344 -8.438983 -3.056520 -1.368206 -2.224668 -3.056520 -1.368206 -2.224668 -2.297298 -1.015075 -1.675315 -2.671690 24.755389 4.189529 -5.798695 10.077989 8.151765 24.237794 -10.228619 28.681853 -73.285640 35.527104 55.984043 -57.564524 53.832005 27.196730 -28.812190 7.286113 -9.323182 3.694275 0.741112 6.701001 70.862086 31.564193 -33.466752 135.260221 75.035564 34.367360 23.165544 30.567608 -2.891856 -8.602146 45.829318 -10.339743 12.119701 -29.258229 -12.063963 -1.673314 0.447232 -1.514931 1.397080 -1.752179 0.782283 -0.955057 45.044752 -6.341979 3.389893 -14.427294 -3.637317 -0.367057 -5.446131 -4.131191 1.460529 -2.383832 0.817697
-53.154011 92.328017 22.380761 -139.189686 -26.436987 7.513495 -12.464560 -3.136809 -8.418723 -2.978158 -1.356750 -2.222296 -2.978158 -1.356750 -2.222296 -2.238483 -1.006778 -1.673304 -2.805441 24.570949 4.220295 -6.057816 9.750725 8.249481 23.751081 -10.384910 28.500821 -73.720602 35.600834 55.498707 -56.671138 54.129273 28.403164 -28.529114 7.674001 -9.096896 3.406842 0.737731 6.498611 70.318159 31.843248 -34.723554 135.813888 75.658952 33.699547 22.828093 30.573430 -3.466584 -7.911104 44.529864 -9.977259 11.567946 -28.325261 -11.573092 -1.315435 0.358460 -1.402209 1.275237 -1.476146 0.664734 -1.089468 43.887287 -6.509400 3.407357 -13.825077 -3.423810 -0.435890 -5.648767 -4.277206 1.634749 -2.370003 0.924647
-53.079347 92.498502 22.535534 -138.918619 -25.995004 7.552719 -12.454853 -3.216295 -8.562767 -2.896647 -1.340586 -2.215168 -2.896647 -1.340586 -2.215168 -2.177280 -0.994983 -1.667700 -2.948023 24.398622 4.243059 -6.330417 9.446408 8.335019 23.300515 -10.476592 28.316788 -73.905336 35.697470 55.193806 -55.722818 54.220369 29.660510 -28.340061 7.816283 -8.901539 3.118348 0.731370 6.297263 69.751745 32.097279 -35.877864 135.202131 75.933914 32.267352 22.327176 30.579409 -3.999161 -7.883269 43.520160 -10.055780 10.930620 -27.579301 -10.948928 -0.929853 0.366728 -1.454231 1.283166 -1.319698 0.654182 -1.478792 42.902133 -6.823953 3.406958 -13.113699 -3.195147 -0.599134 -5.834351 -4.447760 1.838325 -2.406885 1.056570
-53.017849 92.685693 22.633968 -138.608511 -25.825352 7.579140 -12.562015 -3.070336 -8.764193 -2.833206 -1.325820 -2.209020 -2.833206 -1.325820 -2.209020 -2.129636 -0.984165 -1.662881 -3.043520 24.238056 4.273857 -6.520217 9.160542 8.423363 22.996797 -10.591386 28.138543 -73.924354 35.845388 55.010405 -54.880581 54.027699 30.787395 -28.165771 7.843776 -8.774016 2.944382 0.718287 6.122804 69.180545 32.237988 -36.865261 134.362977 76.054944 30.767427 21.872001 30.630370 -4.353346 -8.218955 42.901721 -10.303896 10.562232 -26.994555 -10.444444 -0.724708 0.443869 -1.565005 1.375581 -1.260300 0.680227 -1.832969 42.181576 -7.050715 3.350367 -12.364395 -2.993501 -0.692176 -5.967944 -4.589614 1.970461 -2.508637 1.150374
-52.949185 92.861777 22.688901 -138.332575 -25.709594 7.603173 -12.665471 -2.862322 -8.958873 -2.768206 -1.317852 -2.201107 -2.768206 -1.317852 -2.201107 -2.080842 -0.978458 -1.656768 -3.121361 24.091634 4.307586 -6.678416 8.899697 8.512189 22.700329 -10.617023 27.976234 -73.700978 35.969035 54.999223 -54.276423 53.582114 31.616244 -28.009672 7.869514 -8.730840 2.793777 0.727318 5.960214 68.584903 32.279297 -37.695355 133.440998 76.176598 29.263120 21.724559 30.638292 -4.282524 -8.604117 42.415979 -10.559740 10.635872 -26.479102 -10.180314 -0.870751 0.561282 -1.597520 1.496414 -1.237683 0.662160 -1.995059 41.560973 -7.131764 3.170050 -11.627654 -2.809808 -0.752244 -6.106287 -4.723310 2.058945 -2.611389 1.226555
-52.858599 93.007689 22.737702 -138.239822 -25.448445 7.644134 -12.577450 -2.722142 -9.042250 -2.686152 -1.317244 -2.184774 -2.686152 -1.317244 -2.184774 -2.019265 -0.978368 -1.644336 -3.220829 23.955470 4.327890 -6.871596 8.658903 8.582029 22.347268 -10.655256 27.760034 -73.399431 36.087085 55.065129 -53.856924 53.024331 32.203173 -27.865647 7.880355 -8.712222 2.570079 0.748876 5.767673 67.965919 32.271756 -38.405152 132.086697 76.276545 27.458202 21.891313 30.555371 -3.831271 -8.592835 41.831429 -10.653409 10.831528 -25.979411 -10.046182 -1.067563 0.615966 -1.365761 1.483963 -1.135065 0.490564 -1.803319 40.859212 -7.051148 2.862413 -10.902385 -2.621704 -0.709018 -6.295965 -4.840179 2.100780 -2.671657 1.274526
-52.769868 93.130997 22.789209 -138.295461 -25.129916 7.697574 -12.378934 -2.615892 -9.057237 -2.606036 -1.323018 -2.173076 -2.606036 -1.323018 -2.173076 -1.959175 -0.983033 -1.635412 -3.298654 23.841191 4.348426 -7.024650 8.456747 8.645813 22.000952 -10.641109 27.574539 -72.983705 36.145240 55.229889 -53.535132 52.494366 32.673458 -27.733996 7.836420 -8.676038 2.388915 0.810623 5.586354 67.333368 32.221452 -39.009407 130.531256 76.364437 25.608595 22.074213 30.379901 -3.419553 -8.217649 41.235898 -10.626191 10.807077 -25.530885 -9.820941 -1.106409 0.607860 -1.031585 1.370435 -0.972775 0.263831 -1.420033 40.162919 -6.918434 2.513048 -10.216133 -2.416202 -0.617745 -6.512019 -4.957004 2.126526 -2.706019 1.313920
